<svg xmlns="http://www.w3.org/2000/svg" xmlns:xlink="http://www.w3.org/1999/xlink" width="500" zoomAndPan="magnify" viewBox="0 0 375 374.999991" height="500" preserveAspectRatio="xMidYMid meet" version="1.0"><defs><clipPath id="a1289abec2"><path d="M 11 109.042969 L 110.339844 109.042969 L 110.339844 265.792969 L 11 265.792969 Z M 11 109.042969 " clip-rule="nonzero"/></clipPath><clipPath id="19a17f6e9e"><path d="M 8.339844 157 L 84 157 L 84 263 L 8.339844 263 Z M 8.339844 157 " clip-rule="nonzero"/></clipPath><clipPath id="072a4f8ffc"><path d="M 115.871094 109.042969 L 197 109.042969 L 197 265.792969 L 115.871094 265.792969 Z M 115.871094 109.042969 " clip-rule="nonzero"/></clipPath><clipPath id="8da0f37197"><path d="M 225.023438 153 L 278 153 L 278 264 L 225.023438 264 Z M 225.023438 153 " clip-rule="nonzero"/></clipPath><clipPath id="7a60c9440c"><path d="M 228 244 L 252 244 L 252 265.792969 L 228 265.792969 Z M 228 244 " clip-rule="nonzero"/></clipPath><clipPath id="9daa611395"><path d="M 264 251 L 280 251 L 280 265.792969 L 264 265.792969 Z M 264 251 " clip-rule="nonzero"/></clipPath><clipPath id="849029ac0e"><path d="M 273 109.042969 L 366.773438 109.042969 L 366.773438 265.792969 L 273 265.792969 Z M 273 109.042969 " clip-rule="nonzero"/></clipPath><clipPath id="3967e53568"><path d="M 228 109.042969 L 283 109.042969 L 283 161 L 228 161 Z M 228 109.042969 " clip-rule="nonzero"/></clipPath></defs><g clip-path="url(#a1289abec2)"><path fill="#7ed957" d="M 108.085938 116.652344 C 106.585938 111.578125 104.632812 109.042969 102.210938 109.042969 L 19.15625 109.042969 C 16.59375 109.042969 14.636719 111.238281 13.289062 115.632812 C 11.933594 120.03125 11.257812 126.117188 11.257812 133.902344 C 11.257812 134.828125 11.777344 135.601562 12.832031 136.203125 C 13.875 136.8125 14.96875 137.117188 16.128906 137.117188 C 17.207031 137.117188 18.125 136.8125 18.890625 136.203125 C 19.644531 135.59375 20.378906 133.648438 21.089844 130.382812 C 21.796875 127.117188 22.933594 124.6875 24.496094 123.101562 C 27.050781 120.375 31.347656 119.011719 37.386719 119.011719 C 46.683594 119.011719 51.335938 122.472656 51.335938 129.394531 L 51.335938 159.171875 C 59.320312 163.746094 65.535156 169.839844 70.25 175.871094 L 70.25 133.972656 C 70.25 128.921875 71.332031 125.265625 73.5 123.023438 C 75.664062 120.773438 79.160156 119.652344 83.988281 119.652344 C 87.398438 119.652344 90.539062 120.347656 93.414062 121.726562 C 96.289062 123.113281 98.457031 125.742188 99.910156 129.605469 C 101.371094 133.480469 102.507812 135.734375 103.339844 136.371094 C 104.164062 137.011719 105.089844 137.328125 106.101562 137.328125 C 108.917969 137.328125 110.324219 135.15625 110.324219 130.796875 C 110.324219 126.441406 109.574219 121.726562 108.085938 116.652344 Z M 66.753906 264.214844 C 64.625 261.113281 62.449219 257.695312 60.988281 253.726562 C 59.589844 250.050781 58.648438 246.101562 58.191406 241.980469 C 58.171875 241.753906 58.148438 241.53125 58.128906 241.296875 C 55.839844 240.246094 53.546875 238.980469 51.335938 237.621094 L 51.335938 244.054688 C 51.335938 246.554688 50.777344 248.796875 49.675781 250.800781 C 48.574219 252.796875 46.414062 254.277344 43.210938 255.238281 C 40.003906 256.210938 38.121094 257.03125 37.546875 257.714844 C 36.976562 258.402344 36.695312 259.183594 36.695312 260.046875 C 36.695312 261.855469 37.476562 263.265625 39.039062 264.28125 C 40.605469 265.289062 42.484375 265.792969 44.691406 265.792969 C 46.535156 265.792969 49.238281 265.523438 52.796875 264.992188 C 56.347656 264.457031 59.054688 264.1875 60.894531 264.1875 C 62.382812 264.1875 64.46875 264.371094 67.144531 264.730469 C 67.011719 264.566406 66.882812 264.390625 66.753906 264.214844 " fill-opacity="1" fill-rule="nonzero"/></g><g clip-path="url(#19a17f6e9e)"><path fill="#7ed957" d="M 71.113281 261.207031 C 69.101562 258.277344 67.183594 255.234375 65.949219 251.859375 C 64.652344 248.476562 63.847656 244.933594 63.453125 241.398438 C 63.324219 240.148438 63.246094 238.90625 63.1875 237.667969 C 63.1875 237.65625 63.179688 237.644531 63.167969 237.640625 C 52.746094 233.875 40.449219 223.066406 38.992188 221.765625 C 38.964844 221.742188 38.996094 221.699219 39.03125 221.71875 C 45.042969 224.339844 47.773438 221.332031 48.023438 221.03125 C 48.035156 221.019531 48.03125 221.003906 48.015625 220.992188 C 33.492188 211.125 30.410156 189.644531 30.410156 189.644531 C 28.257812 177.433594 21 168.230469 8.390625 161.816406 C 8.367188 161.804688 8.363281 161.773438 8.386719 161.757812 C 24.820312 151.15625 42.171875 165.992188 43.011719 166.722656 C 43.03125 166.742188 43.050781 166.734375 43.058594 166.710938 C 43.691406 164.816406 40.867188 160.640625 40.429688 160.007812 C 40.414062 159.984375 40.441406 159.953125 40.46875 159.964844 C 67.28125 169.570312 77.441406 198.855469 77.683594 199.964844 C 77.6875 199.984375 77.703125 199.988281 77.71875 199.980469 C 81.414062 198.695312 82.125 193.164062 82.238281 191.929688 C 82.238281 191.894531 82.296875 191.898438 82.300781 191.933594 C 89.101562 228.421875 71.414062 234.65625 69.191406 235.664062 C 69.167969 235.671875 69.15625 235.65625 69.160156 235.628906 C 72.878906 203.039062 47.867188 184.15625 44.804688 181.976562 C 44.769531 181.953125 44.734375 181.996094 44.761719 182.023438 C 47.457031 184.714844 50.851562 189.910156 53.152344 193.667969 C 54.671875 195.988281 56.082031 198.382812 57.402344 200.8125 C 59.03125 203.878906 60.503906 207.019531 61.832031 210.242188 C 63.152344 213.503906 64.023438 216.941406 64.585938 220.410156 C 65.679688 227.367188 65.394531 234.371094 66.429688 241.003906 C 66.960938 244.3125 67.863281 247.503906 69.179688 250.511719 C 70.449219 253.542969 72.371094 256.246094 74.355469 258.863281 L 74.4375 258.976562 C 74.453125 259 74.472656 259.019531 74.488281 259.042969 C 75.148438 260.003906 74.859375 261.335938 73.824219 261.925781 C 72.902344 262.453125 71.714844 262.082031 71.113281 261.207031 " fill-opacity="1" fill-rule="nonzero"/></g><path fill="#7ed957" d="M 97.261719 149.199219 C 97.25 149.195312 97.238281 149.203125 97.238281 149.214844 C 97.453125 155.851562 95.324219 160.917969 90.808594 164.554688 C 90.808594 164.554688 82.710938 170.667969 81.945312 178.875 C 81.941406 178.882812 81.9375 178.890625 81.925781 178.886719 C 81.75 178.851562 79.902344 178.402344 79.621094 175.335938 C 79.613281 175.320312 79.597656 175.316406 79.589844 175.335938 C 79.429688 176.042969 78.351562 180.914062 78.320312 185.464844 L 78.324219 185.46875 C 78.3125 186.425781 78.355469 187.371094 78.460938 188.253906 C 78.460938 188.273438 78.46875 188.289062 78.46875 188.304688 C 78.59375 188.984375 78.777344 189.617188 78.972656 190.183594 C 81.203125 188.621094 83.679688 187.296875 85.921875 185.5625 C 87.214844 184.546875 88.425781 183.417969 89.457031 182.132812 C 90.480469 180.863281 91.433594 179.546875 92.324219 178.1875 C 93.019531 177.09375 93.679688 175.972656 94.292969 174.824219 C 95.3125 173.03125 96.671875 170.457031 97.164062 168.742188 C 97.167969 168.726562 97.195312 168.734375 97.195312 168.75 C 96.992188 170.503906 94.90625 185.058594 80.71875 190.878906 C 80.710938 190.882812 80.707031 190.886719 80.714844 190.898438 C 81.628906 191.589844 88.167969 197.460938 101.578125 186.433594 C 101.589844 186.421875 101.574219 186.398438 101.5625 186.402344 C 101.027344 186.636719 98.609375 187.589844 97.246094 186.359375 C 97.242188 186.355469 97.238281 186.347656 97.242188 186.339844 C 97.644531 185.996094 107.34375 175.207031 105.234375 162.003906 C 105.230469 161.988281 105.210938 161.984375 105.203125 162 C 105.046875 162.316406 103.972656 164.421875 103.054688 164.589844 C 103.046875 164.59375 103.035156 164.582031 103.035156 164.574219 C 103.148438 164.0625 105.3125 153.574219 97.261719 149.199219 " fill-opacity="1" fill-rule="nonzero"/><g clip-path="url(#072a4f8ffc)"><path fill="#7ed957" d="M 196.152344 134.515625 C 196.152344 131.882812 196.183594 129.894531 196.253906 128.539062 C 196.324219 127.1875 196.355469 126.199219 196.355469 125.582031 C 196.355469 121.144531 192.570312 117.277344 184.988281 113.992188 C 177.40625 110.699219 170.292969 109.050781 163.644531 109.050781 C 151.945312 109.050781 141.613281 112.308594 132.648438 118.824219 C 123.679688 125.339844 119.199219 133.546875 119.199219 143.457031 C 119.199219 148.804688 120.25 153.65625 122.363281 157.992188 C 129.367188 153.667969 136.878906 153.195312 143.605469 154.519531 C 141.675781 152.707031 140.261719 151.136719 139.378906 149.800781 C 137.003906 146.238281 135.808594 142.726562 135.808594 139.269531 C 135.808594 134.289062 138.5 129.722656 143.878906 125.566406 C 149.257812 121.417969 155.707031 119.339844 163.21875 119.339844 C 169.839844 119.339844 175.445312 121.152344 180.027344 124.777344 C 184.617188 128.402344 186.910156 133.59375 186.910156 140.359375 C 186.910156 141.601562 187.453125 142.757812 188.535156 143.828125 C 189.621094 144.898438 190.722656 145.433594 191.84375 145.433594 C 194.992188 145.433594 196.5625 143.148438 196.5625 138.574219 C 196.289062 136.5625 196.152344 135.210938 196.152344 134.515625 Z M 183.390625 254.273438 C 182.3125 252.660156 181.304688 250.933594 180.46875 249.0625 C 180.164062 248.414062 179.882812 247.761719 179.617188 247.097656 C 179.402344 247.289062 179.183594 247.480469 178.964844 247.671875 C 172.976562 252.832031 165.40625 255.40625 156.269531 255.40625 C 147.199219 255.40625 140.105469 253.050781 134.980469 248.339844 C 129.855469 243.628906 126.882812 237.042969 126.054688 228.589844 C 125.640625 223.457031 123.753906 220.898438 120.398438 220.898438 C 117.378906 220.898438 115.871094 222.179688 115.871094 224.742188 C 115.871094 225.367188 115.996094 226.667969 116.234375 228.644531 C 116.476562 230.613281 116.597656 232.296875 116.597656 233.683594 C 116.597656 237.703125 116.496094 241.046875 116.289062 243.71875 C 116.085938 246.382812 115.972656 248.203125 115.972656 249.171875 C 115.972656 253.121094 120.496094 256.882812 129.53125 260.453125 C 138.566406 264.019531 147.375 265.804688 155.960938 265.804688 C 166.59375 265.804688 176.480469 262.988281 185.621094 257.363281 C 184.855469 256.375 184.109375 255.351562 183.390625 254.273438 " fill-opacity="1" fill-rule="nonzero"/></g><path fill="#7ed957" d="M 190.78125 255.617188 C 188.632812 252.914062 186.570312 250.101562 185.144531 246.917969 C 183.664062 243.726562 182.640625 240.355469 182.023438 236.960938 C 181.8125 235.757812 181.65625 234.5625 181.515625 233.367188 C 181.511719 233.355469 181.503906 233.347656 181.492188 233.34375 C 171.136719 230.402344 158.488281 220.773438 156.988281 219.609375 C 156.960938 219.589844 156.988281 219.550781 157.023438 219.558594 C 163.027344 221.695312 165.472656 218.597656 165.695312 218.292969 C 165.707031 218.28125 165.699219 218.261719 165.683594 218.253906 C 150.9375 209.683594 146.511719 189.101562 146.511719 189.101562 C 143.601562 177.425781 135.945312 169.011719 123.289062 163.652344 C 123.265625 163.644531 123.261719 163.613281 123.28125 163.597656 C 138.5 152.226562 156.320312 165.414062 157.183594 166.070312 C 157.203125 166.082031 157.21875 166.074219 157.226562 166.050781 C 157.714844 164.175781 154.695312 160.324219 154.230469 159.742188 C 154.210938 159.71875 154.238281 159.6875 154.265625 159.699219 C 180.902344 167.183594 192.722656 194.84375 193.03125 195.902344 C 193.035156 195.917969 193.050781 195.917969 193.066406 195.914062 C 196.5625 194.417969 196.878906 189.019531 196.90625 187.816406 C 196.90625 187.78125 196.960938 187.78125 196.96875 187.816406 C 206.015625 222.667969 189.289062 229.898438 187.203125 231.023438 C 187.179688 231.035156 187.164062 231.019531 187.167969 230.992188 C 188.582031 199.199219 163.0625 182.613281 159.945312 180.710938 C 159.914062 180.691406 159.878906 180.730469 159.910156 180.753906 C 162.703125 183.179688 166.34375 187.980469 168.828125 191.460938 C 170.457031 193.605469 171.984375 195.824219 173.425781 198.089844 C 175.210938 200.949219 176.851562 203.890625 178.355469 206.917969 C 179.855469 209.984375 180.929688 213.25 181.707031 216.570312 C 183.238281 223.230469 183.433594 230.027344 184.878906 236.378906 C 185.617188 239.542969 186.707031 242.574219 188.1875 245.394531 C 189.621094 248.242188 191.667969 250.730469 193.765625 253.128906 L 193.851562 253.230469 C 193.871094 253.25 193.890625 253.273438 193.90625 253.292969 C 194.609375 254.179688 194.421875 255.488281 193.457031 256.128906 C 192.601562 256.703125 191.425781 256.425781 190.78125 255.617188 " fill-opacity="1" fill-rule="nonzero"/><path fill="#7ed957" d="M 211.816406 206.171875 C 211.808594 206.164062 211.792969 206.175781 211.792969 206.183594 C 212.007812 212.625 209.9375 217.539062 205.550781 221.066406 C 205.550781 221.066406 197.675781 226.996094 196.933594 234.960938 C 196.929688 234.964844 196.929688 234.972656 196.917969 234.972656 C 196.746094 234.9375 194.949219 234.503906 194.675781 231.527344 C 194.671875 231.511719 194.652344 231.507812 194.648438 231.527344 C 194.488281 232.214844 193.441406 236.941406 193.414062 241.351562 L 193.414062 241.359375 C 193.40625 242.289062 193.445312 243.203125 193.550781 244.0625 C 193.550781 244.078125 193.554688 244.09375 193.554688 244.109375 C 193.675781 244.765625 193.855469 245.382812 194.046875 245.929688 C 196.210938 244.417969 198.621094 243.128906 200.796875 241.445312 C 202.054688 240.460938 203.230469 239.367188 204.238281 238.121094 C 205.230469 236.886719 206.15625 235.613281 207.019531 234.292969 C 207.695312 233.230469 208.339844 232.144531 208.933594 231.027344 C 209.921875 229.289062 211.246094 226.792969 211.722656 225.132812 C 211.730469 225.113281 211.753906 225.121094 211.757812 225.136719 C 211.554688 226.839844 209.53125 240.960938 195.742188 246.605469 C 195.730469 246.609375 195.726562 246.617188 195.738281 246.625 C 196.625 247.292969 202.984375 252.992188 216.015625 242.292969 C 216.027344 242.28125 216.011719 242.257812 216 242.265625 C 215.480469 242.492188 213.128906 243.417969 211.800781 242.222656 C 211.800781 242.214844 211.796875 242.210938 211.800781 242.203125 C 212.191406 241.867188 221.617188 231.402344 219.566406 218.59375 C 219.558594 218.578125 219.542969 218.574219 219.535156 218.585938 C 219.382812 218.894531 218.339844 220.9375 217.449219 221.097656 C 217.4375 221.101562 217.429688 221.09375 217.429688 221.082031 C 217.539062 220.589844 219.640625 210.414062 211.816406 206.171875 " fill-opacity="1" fill-rule="nonzero"/><g clip-path="url(#8da0f37197)"><path fill="#7ed957" d="M 259.464844 261.988281 C 260.148438 258.753906 260.707031 255.460938 260.5625 252.125 C 260.464844 248.765625 259.890625 245.441406 258.960938 242.273438 C 258.625 241.15625 258.246094 240.0625 257.855469 238.984375 C 257.851562 238.972656 257.855469 238.960938 257.863281 238.949219 C 265.480469 231.992188 272.1875 218.324219 272.972656 216.6875 C 272.988281 216.65625 272.949219 216.632812 272.925781 216.660156 C 268.691406 221.0625 265.261719 219.460938 264.941406 219.296875 C 264.925781 219.289062 264.925781 219.273438 264.933594 219.257812 C 273.894531 205.597656 268.851562 186.09375 268.851562 186.09375 C 266.328125 174.863281 269.277344 164.378906 277.828125 154.363281 C 277.84375 154.347656 277.835938 154.316406 277.8125 154.3125 C 259.875 151.121094 250.261719 170.050781 249.800781 170.980469 C 249.789062 171.003906 249.769531 171.003906 249.753906 170.984375 C 248.53125 169.589844 249.464844 165 249.617188 164.300781 C 249.621094 164.273438 249.585938 164.257812 249.566406 164.277344 C 229.9375 182.117188 231.6875 210.847656 231.878906 211.882812 C 231.882812 211.898438 231.867188 211.90625 231.851562 211.910156 C 228.210938 212.132812 225.621094 207.648438 225.082031 206.632812 C 225.066406 206.601562 225.019531 206.625 225.027344 206.660156 C 232.246094 240.347656 249.699219 239.351562 251.96875 239.417969 C 251.996094 239.417969 252 239.398438 251.988281 239.378906 C 237.109375 212.792969 251.867188 187.652344 253.722656 184.6875 C 253.742188 184.65625 253.789062 184.675781 253.773438 184.710938 C 252.421875 187.980469 251.363281 193.652344 250.726562 197.695312 C 250.25 200.226562 249.894531 202.78125 249.632812 205.339844 C 249.328125 208.550781 249.1875 211.769531 249.195312 215.003906 C 249.230469 218.269531 249.710938 221.527344 250.46875 224.699219 C 252.019531 231.054688 254.773438 236.949219 256.261719 243 C 256.988281 246.023438 257.355469 249.085938 257.300781 252.128906 C 257.292969 255.183594 256.609375 258.1875 255.839844 261.140625 L 255.808594 261.265625 C 255.800781 261.292969 255.796875 261.316406 255.789062 261.34375 C 255.566406 262.402344 256.292969 263.441406 257.394531 263.578125 C 258.375 263.695312 259.261719 262.953125 259.464844 261.988281 " fill-opacity="1" fill-rule="nonzero"/></g><path fill="#7ed957" d="M 297.992188 222.621094 C 297.992188 222.609375 297.976562 222.609375 297.96875 222.617188 C 294.347656 227.265625 289.90625 229.507812 284.535156 229.425781 C 284.535156 229.425781 275.136719 228.988281 269.902344 234.148438 C 269.898438 234.152344 269.890625 234.15625 269.882812 234.148438 C 269.773438 234.023438 268.679688 232.667969 270.222656 230.417969 C 270.226562 230.402344 270.214844 230.390625 270.203125 230.402344 C 269.679688 230.789062 266.117188 233.5 263.503906 236.582031 L 263.503906 236.585938 C 262.949219 237.234375 262.441406 237.902344 262.015625 238.566406 C 262.003906 238.574219 262 238.589844 261.992188 238.601562 C 261.699219 239.136719 261.472656 239.671875 261.289062 240.167969 C 263.808594 240.371094 266.375 240.871094 268.996094 240.964844 C 270.519531 241.003906 272.046875 240.925781 273.53125 240.636719 C 275.003906 240.351562 276.449219 239.996094 277.875 239.574219 C 279.007812 239.222656 280.128906 238.835938 281.226562 238.398438 C 282.996094 237.753906 285.453125 236.773438 286.789062 235.886719 C 286.804688 235.875 286.820312 235.894531 286.808594 235.90625 C 285.660156 236.988281 275.84375 245.722656 262.167969 241.632812 C 262.160156 241.628906 262.152344 241.632812 262.15625 241.644531 C 262.429688 242.632812 263.859375 250.347656 279.933594 250.449219 C 279.949219 250.449219 279.953125 250.421875 279.9375 250.417969 C 279.417969 250.273438 277.105469 249.550781 276.8125 247.9375 C 276.8125 247.933594 276.8125 247.925781 276.820312 247.925781 C 277.308594 247.917969 290.539062 246.070312 296.519531 235.875 C 296.527344 235.859375 296.515625 235.847656 296.5 235.851562 C 296.207031 235.980469 294.222656 236.804688 293.457031 236.398438 C 293.449219 236.394531 293.445312 236.382812 293.453125 236.378906 C 293.828125 236.09375 301.378906 230.171875 297.992188 222.621094 " fill-opacity="1" fill-rule="nonzero"/><g clip-path="url(#7a60c9440c)"><path fill="#7ed957" d="M 251.195312 244.714844 C 249.621094 244.671875 247.839844 244.472656 245.9375 244.007812 C 245.910156 246.859375 245.296875 249.382812 244.105469 251.585938 C 242.894531 253.839844 240.308594 255.125 236.378906 255.445312 C 232.433594 255.769531 230.105469 256.339844 229.398438 257.144531 C 228.679688 257.960938 228.316406 258.972656 228.316406 260.171875 C 228.316406 261.871094 229.105469 263.230469 230.679688 264.257812 C 232.25 265.285156 233.894531 265.796875 235.605469 265.796875 C 237.394531 265.796875 240.195312 265.382812 244.019531 264.5625 C 246.363281 264.058594 248.578125 263.714844 250.65625 263.511719 C 250.378906 262.453125 250.351562 261.339844 250.585938 260.25 C 250.605469 260.136719 250.628906 260.042969 250.648438 259.964844 L 250.691406 259.800781 C 251.308594 257.421875 251.96875 254.660156 251.976562 252.117188 L 251.976562 252.03125 C 252.027344 249.667969 251.757812 247.207031 251.195312 244.714844 " fill-opacity="1" fill-rule="nonzero"/></g><g clip-path="url(#9daa611395)"><path fill="#7ed957" d="M 278.960938 257.523438 C 278.28125 256.75 276.257812 256.035156 272.894531 255.394531 C 269.53125 254.753906 267.324219 253.71875 266.289062 252.285156 C 266.140625 252.074219 265.996094 251.859375 265.871094 251.640625 C 265.875 251.742188 265.882812 251.835938 265.882812 251.933594 C 266.046875 255.890625 265.402344 259.632812 264.675781 263.082031 C 264.558594 263.65625 264.371094 264.199219 264.125 264.710938 C 266.308594 265.144531 268.0625 265.363281 269.375 265.363281 C 272.875 265.363281 275.519531 264.851562 277.300781 263.824219 C 279.089844 262.804688 279.984375 261.65625 279.984375 260.382812 C 279.984375 259.257812 279.644531 258.300781 278.960938 257.523438 " fill-opacity="1" fill-rule="nonzero"/></g><g clip-path="url(#849029ac0e)"><path fill="#7ed957" d="M 365.050781 256.480469 C 363.90625 255.6875 362.617188 255.28125 361.183594 255.28125 C 359.828125 255.28125 358.089844 254.859375 355.976562 254 C 353.859375 253.144531 351.949219 251.789062 350.226562 249.933594 L 295.019531 175.835938 C 294.445312 175.050781 294.160156 174.371094 294.160156 173.804688 C 294.160156 173.011719 294.808594 171.722656 296.097656 169.921875 L 328.855469 126.121094 C 331.074219 123.109375 334.226562 120.992188 338.304688 119.773438 C 342.386719 118.546875 344.734375 117.628906 345.34375 116.988281 C 345.949219 116.351562 346.253906 115.574219 346.253906 114.660156 C 346.253906 113.03125 345.644531 111.691406 344.421875 110.628906 C 343.203125 109.574219 341.625 109.042969 339.691406 109.042969 C 337.894531 109.042969 335.289062 109.363281 331.875 110.007812 C 328.46875 110.648438 326.121094 110.96875 324.832031 110.96875 C 323.894531 110.96875 321.898438 110.6875 318.847656 110.113281 C 315.796875 109.546875 313.304688 109.253906 311.367188 109.253906 C 309.210938 109.253906 307.367188 109.75 305.820312 110.742188 C 304.28125 111.734375 303.507812 113.042969 303.507812 114.664062 C 303.507812 115.941406 303.96875 116.984375 304.90625 117.796875 C 305.835938 118.605469 307.835938 119.15625 310.914062 119.441406 C 313.996094 119.730469 315.910156 120.140625 316.664062 120.679688 C 317.414062 121.21875 317.792969 121.917969 317.792969 122.777344 C 317.792969 124.136719 316.613281 126.289062 314.25 129.230469 L 273.625 182.628906 C 273.726562 183.375 273.867188 184.117188 274.03125 184.867188 C 274.234375 185.675781 275.316406 190.265625 275.542969 196.441406 L 279.609375 191.277344 C 280.253906 190.421875 280.757812 189.988281 281.121094 189.988281 C 281.472656 189.988281 282.046875 190.492188 282.835938 191.492188 L 321.203125 241.996094 C 326.574219 249.144531 332.578125 254.878906 339.207031 259.199219 C 345.832031 263.527344 351.9375 265.6875 357.527344 265.6875 C 360.175781 265.6875 362.382812 265.144531 364.136719 264.058594 C 365.894531 262.980469 366.765625 261.460938 366.765625 259.511719 C 366.765625 258.285156 366.199219 257.273438 365.050781 256.480469 " fill-opacity="1" fill-rule="nonzero"/></g><g clip-path="url(#3967e53568)"><path fill="#7ed957" d="M 280.148438 111.011719 C 278.394531 109.984375 276.132812 109.472656 273.34375 109.472656 C 269.914062 109.472656 266.855469 109.898438 264.179688 110.757812 C 261.5 111.613281 259.300781 112.046875 257.589844 112.046875 C 254.871094 112.046875 251.527344 111.648438 247.5625 110.863281 C 243.59375 110.078125 240.253906 109.6875 237.542969 109.6875 C 234.824219 109.6875 232.683594 110.339844 231.105469 111.648438 C 229.53125 112.960938 228.75 114.214844 228.75 115.410156 C 228.75 116.613281 229.105469 117.628906 229.824219 118.433594 C 230.539062 119.25 232.808594 119.871094 236.640625 120.296875 C 240.472656 120.730469 242.976562 122.019531 244.164062 124.160156 C 245.339844 126.304688 245.9375 128.769531 245.9375 131.558594 L 245.9375 160.390625 C 245.953125 160.375 245.964844 160.359375 245.980469 160.347656 C 247.484375 158.980469 249.65625 158.601562 251.519531 159.320312 C 254.957031 155.59375 259.398438 152.15625 264.734375 150.238281 L 264.734375 133.273438 C 264.734375 129.847656 265.109375 127.269531 265.863281 125.554688 C 266.609375 123.839844 267.617188 122.679688 268.863281 122.070312 C 270.121094 121.464844 272.320312 120.746094 275.472656 119.921875 C 278.621094 119.105469 280.628906 118.285156 281.488281 117.472656 C 282.347656 116.664062 282.78125 115.722656 282.78125 114.664062 C 282.78125 113.25 281.898438 112.03125 280.148438 111.011719 " fill-opacity="1" fill-rule="nonzero"/></g></svg>